<svg width="445" height="445" viewBox="0 0 445 445" fill="none" xmlns="http://www.w3.org/2000/svg">
<circle cx="222.5" cy="222.5" r="222.5" fill="white"/>
<path d="M96.576 214.72C90.576 214.72 85.752 213.952 82.104 212.416V205.504C84.168 206.272 86.376 206.896 88.728 207.376C91.128 207.856 93.504 208.096 95.856 208.096C99.552 208.096 102.312 207.664 104.136 206.8C106.008 205.936 106.944 204.208 106.944 201.616C106.944 200.032 106.56 198.76 105.792 197.8C105.024 196.84 103.752 196.024 101.976 195.352C100.2 194.632 97.752 193.888 94.632 193.12C89.64 191.824 86.136 190.192 84.12 188.224C82.104 186.208 81.096 183.448 81.096 179.944C81.096 175.864 82.584 172.672 85.56 170.368C88.536 168.064 92.976 166.912 98.88 166.912C101.568 166.912 104.088 167.104 106.44 167.488C108.84 167.872 110.712 168.304 112.056 168.784V175.696C108.408 174.304 104.376 173.608 99.96 173.608C96.504 173.608 93.816 174.064 91.896 174.976C89.976 175.888 89.016 177.544 89.016 179.944C89.016 181.336 89.352 182.464 90.024 183.328C90.696 184.192 91.848 184.936 93.48 185.56C95.16 186.184 97.464 186.88 100.392 187.648C104.184 188.608 107.112 189.76 109.176 191.104C111.288 192.4 112.752 193.936 113.568 195.712C114.432 197.44 114.864 199.408 114.864 201.616C114.864 205.696 113.352 208.912 110.328 211.264C107.304 213.568 102.72 214.72 96.576 214.72ZM134.451 214.72C130.803 214.72 128.067 213.76 126.243 211.84C124.467 209.872 123.579 207.208 123.579 203.848V185.992H118.539V179.872H123.579V172.024L131.355 169.648V179.872H140.427L139.923 185.992H131.355V203.416C131.355 205.384 131.811 206.776 132.723 207.592C133.635 208.36 135.123 208.744 137.187 208.744C138.483 208.744 139.851 208.504 141.291 208.024V213.568C139.419 214.336 137.139 214.72 134.451 214.72ZM157.95 214.72C155.79 214.72 153.774 214.336 151.902 213.568C150.078 212.8 148.614 211.648 147.51 210.112C146.406 208.528 145.854 206.584 145.854 204.28C145.854 201.016 146.958 198.4 149.166 196.432C151.422 194.416 154.878 193.408 159.534 193.408H170.478V191.896C170.478 190.264 170.214 188.968 169.686 188.008C169.206 187.048 168.294 186.352 166.95 185.92C165.654 185.488 163.734 185.272 161.19 185.272C157.158 185.272 153.39 185.872 149.886 187.072V181.24C151.422 180.616 153.294 180.112 155.502 179.728C157.71 179.344 160.086 179.152 162.63 179.152C167.622 179.152 171.414 180.16 174.006 182.176C176.646 184.192 177.966 187.48 177.966 192.04V214H171.27L170.766 210.544C169.374 211.888 167.646 212.92 165.582 213.64C163.566 214.36 161.022 214.72 157.95 214.72ZM160.038 209.104C162.39 209.104 164.43 208.72 166.158 207.952C167.934 207.136 169.374 206.056 170.478 204.712V198.736H159.678C157.374 198.736 155.694 199.192 154.638 200.104C153.63 200.968 153.126 202.312 153.126 204.136C153.126 205.912 153.726 207.184 154.926 207.952C156.126 208.72 157.83 209.104 160.038 209.104ZM188.757 214V185.992H183.789V179.872H188.757V175.696C188.757 172.288 189.693 169.552 191.565 167.488C193.485 165.376 196.317 164.32 200.061 164.32C201.453 164.32 202.725 164.44 203.877 164.68C205.029 164.872 206.085 165.16 207.045 165.544V171.16C205.557 170.632 204.045 170.368 202.509 170.368C200.253 170.368 198.693 170.776 197.829 171.592C196.965 172.408 196.533 173.8 196.533 175.768V179.872H205.461L205.101 185.992H196.533V214H188.757ZM211.819 214V185.992H206.851V179.872H211.819V175.696C211.819 172.288 212.755 169.552 214.627 167.488C216.547 165.376 219.379 164.32 223.123 164.32C224.515 164.32 225.787 164.44 226.939 164.68C228.091 164.872 229.147 165.16 230.107 165.544V171.16C228.619 170.632 227.107 170.368 225.571 170.368C223.315 170.368 221.755 170.776 220.891 171.592C220.027 172.408 219.595 173.8 219.595 175.768V179.872H228.523L228.163 185.992H219.595V214H211.819Z" fill="#1705EB"/>
<path d="M120.536 281V234.632H141.2C144.752 234.632 147.68 235.304 149.984 236.648C152.288 237.992 153.992 239.84 155.096 242.192C156.2 244.496 156.752 247.136 156.752 250.112C156.752 254.72 155.312 258.416 152.432 261.2C149.6 263.984 145.76 265.376 140.912 265.376H128.384V281H120.536ZM128.384 259.184H139.472C142.592 259.184 144.944 258.368 146.528 256.736C148.112 255.104 148.904 252.896 148.904 250.112C148.904 247.136 148.136 244.832 146.6 243.2C145.112 241.568 142.856 240.752 139.832 240.752H128.384V259.184ZM172.255 281.72C170.095 281.72 168.079 281.336 166.207 280.568C164.383 279.8 162.919 278.648 161.814 277.112C160.711 275.528 160.159 273.584 160.159 271.28C160.159 268.016 161.263 265.4 163.471 263.432C165.727 261.416 169.183 260.408 173.839 260.408H184.783V258.896C184.783 257.264 184.519 255.968 183.991 255.008C183.511 254.048 182.599 253.352 181.255 252.92C179.959 252.488 178.039 252.272 175.495 252.272C171.463 252.272 167.695 252.872 164.191 254.072V248.24C165.727 247.616 167.599 247.112 169.807 246.728C172.015 246.344 174.391 246.152 176.935 246.152C181.927 246.152 185.719 247.16 188.311 249.176C190.951 251.192 192.271 254.48 192.271 259.04V281H185.575L185.071 277.544C183.679 278.888 181.951 279.92 179.887 280.64C177.871 281.36 175.327 281.72 172.255 281.72ZM174.343 276.104C176.695 276.104 178.735 275.72 180.463 274.952C182.239 274.136 183.679 273.056 184.783 271.712V265.736H173.983C171.679 265.736 169.999 266.192 168.943 267.104C167.935 267.968 167.431 269.312 167.431 271.136C167.431 272.912 168.031 274.184 169.231 274.952C170.431 275.72 172.135 276.104 174.343 276.104ZM205.443 293.672C202.851 293.672 200.643 293.336 198.819 292.664V286.832C199.635 287.12 200.379 287.312 201.051 287.408C201.771 287.504 202.491 287.552 203.211 287.552C204.699 287.552 205.899 287.312 206.811 286.832C207.723 286.352 208.515 285.584 209.187 284.528C209.907 283.52 210.675 282.2 211.491 280.568L196.299 246.872H204.435L215.379 272.216L226.467 246.872H234.531L220.635 279.056C219.435 281.936 218.139 284.456 216.747 286.616C215.403 288.824 213.819 290.552 211.995 291.8C210.219 293.048 208.035 293.672 205.443 293.672ZM268.74 281.72C266.388 281.72 264.132 281.552 261.972 281.216C259.86 280.88 258.108 280.472 256.716 279.992V273.368C258.348 273.992 260.148 274.472 262.116 274.808C264.084 275.144 265.956 275.312 267.732 275.312C270.42 275.312 272.34 275.072 273.492 274.592C274.644 274.112 275.22 273.176 275.22 271.784C275.22 270.776 274.86 269.984 274.14 269.408C273.468 268.832 272.436 268.304 271.044 267.824C269.7 267.344 267.972 266.768 265.86 266.096C263.844 265.424 262.092 264.704 260.604 263.936C259.116 263.12 257.964 262.088 257.148 260.84C256.332 259.592 255.924 257.96 255.924 255.944C255.924 252.824 257.052 250.424 259.308 248.744C261.564 247.016 265.188 246.152 270.18 246.152C272.148 246.152 274.02 246.296 275.796 246.584C277.572 246.872 279.084 247.232 280.332 247.664V254.216C278.988 253.688 277.5 253.28 275.868 252.992C274.284 252.704 272.796 252.56 271.404 252.56C268.908 252.56 267.012 252.776 265.716 253.208C264.468 253.64 263.844 254.504 263.844 255.8C263.844 257.144 264.492 258.104 265.788 258.68C267.132 259.208 269.268 259.952 272.196 260.912C274.884 261.728 277.02 262.592 278.604 263.504C280.188 264.416 281.316 265.52 281.988 266.816C282.708 268.064 283.068 269.696 283.068 271.712C283.068 275.072 281.844 277.592 279.396 279.272C276.948 280.904 273.396 281.72 268.74 281.72ZM299.259 281.72C296.475 281.72 294.363 281.048 292.923 279.704C291.483 278.312 290.763 276.032 290.763 272.864V232.472H298.611V272.144C298.611 273.488 298.851 274.4 299.331 274.88C299.811 275.36 300.531 275.6 301.491 275.6C302.643 275.6 303.747 275.456 304.803 275.168V280.856C303.891 281.192 303.003 281.408 302.139 281.504C301.323 281.648 300.363 281.72 299.259 281.72ZM311.291 239.744V233.264H319.859V239.744H311.291ZM311.939 281V252.848H306.755L307.475 246.872H319.787V281H311.939ZM328.942 296.552V246.872H335.71L336.142 250.256C337.678 248.864 339.358 247.832 341.182 247.16C343.006 246.488 345.166 246.152 347.662 246.152C352.558 246.152 356.374 247.496 359.11 250.184C361.846 252.824 363.214 257.216 363.214 263.36C363.214 269.504 361.798 274.112 358.966 277.184C356.134 280.208 352.27 281.72 347.374 281.72C343.246 281.72 339.718 280.76 336.79 278.84V296.552H328.942ZM345.358 275.816C351.982 275.816 355.294 271.64 355.294 263.288C355.294 259.256 354.55 256.4 353.062 254.72C351.574 252.992 349.078 252.128 345.574 252.128C342.07 252.128 339.142 253.328 336.79 255.728V272.792C337.894 273.704 339.118 274.448 340.462 275.024C341.854 275.552 343.486 275.816 345.358 275.816Z" fill="#1705EB"/>
<path d="M283.005 158.375H251.292C247.487 158.375 244.375 161.487 244.375 165.292V213.708C244.375 217.512 247.487 220.625 251.292 220.625H299.708C303.512 220.625 306.625 217.512 306.625 213.708V181.995C306.625 180.162 305.899 178.399 304.585 177.119L287.881 160.415C286.601 159.101 284.837 158.375 283.005 158.375ZM261.667 199.875H289.333C291.235 199.875 292.792 201.431 292.792 203.333C292.792 205.235 291.235 206.792 289.333 206.792H261.667C259.765 206.792 258.208 205.235 258.208 203.333C258.208 201.431 259.765 199.875 261.667 199.875ZM261.667 186.042H289.333C291.235 186.042 292.792 187.598 292.792 189.5C292.792 191.402 291.235 192.958 289.333 192.958H261.667C259.765 192.958 258.208 191.402 258.208 189.5C258.208 187.598 259.765 186.042 261.667 186.042ZM261.667 172.208H278.958C280.86 172.208 282.417 173.765 282.417 175.667C282.417 177.569 280.86 179.125 278.958 179.125H261.667C259.765 179.125 258.208 177.569 258.208 175.667C258.208 173.765 259.765 172.208 261.667 172.208Z" fill="#583FF3"/>
<circle cx="222.5" cy="222.5" r="206.5" stroke="#040268" stroke-width="6"/>
</svg>
